{
  "accessors": [
    {
      "bufferView": 2,
      "componentType": 5126,
      "count": 4016,
      "max": [
        1.0,
        0.9880833029747009,
        0.998026967048645
      ],
      "min": [
        -1.0000005960464478,
        -0.9880833029747009,
        -0.9980275630950928
      ],
      "type": "VEC3"
    },
    {
      "bufferView": 2,
      "byteOffset": 48192,
      "componentType": 5126,
      "count": 4016,
      "max": [
        1.0,
        1.0,
        0.9980267882347107
      ],
      "min": [
        -1.0,
        -1.0,
        -0.9980267286300659
      ],
      "type": "VEC3"
    },
    {
      "bufferView": 1,
      "componentType": 5126,
      "count": 4016,
      "max": [
        0.65625,
        0.9996917843818665
      ],
      "min": [
        0.3437499403953552,
        0.0003082007169723511
      ],
      "type": "VEC2"
    },
    {
      "bufferView": 0,
      "componentType": 5125,
      "count": 23400,
      "type": "SCALAR"
    }
  ],
  "asset": {
    "extras": {
      "author": "alex.yefremov (https://sketchfab.com/alex.yefremov)",
      "license": "CC-BY-4.0 (http://creativecommons.org/licenses/by/4.0/)",
      "source": "https://sketchfab.com/3d-models/gold-coin-0eb499393b8e46578dde94a0826d131b",
      "title": "gold coin"
    },
    "generator": "Sketchfab-14.15.0",
    "version": "2.0"
  },
  "bufferViews": [
    {
      "buffer": 0,
      "byteLength": 93600,
      "name": "floatBufferViews",
      "target": 34963
    },
    {
      "buffer": 0,
      "byteLength": 32128,
      "byteOffset": 93600,
      "byteStride": 8,
      "name": "floatBufferViews",
      "target": 34962
    },
    {
      "buffer": 0,
      "byteLength": 96384,
      "byteOffset": 125728,
      "byteStride": 12,
      "name": "floatBufferViews",
      "target": 34962
    }
  ],
  "buffers": [
    {
      "byteLength": 222112,
      "uri": "scene.bin"
    }
  ],
  "materials": [
    {
      "doubleSided": true,
      "name": "standardSurface1",
      "pbrMetallicRoughness": {
        "baseColorFactor": [
          1.0,
          0.6795424696330938,
          0.0,
          1.0
        ],
        "roughnessFactor": 0.2118101693262303
      }
    }
  ],
  "meshes": [
    {
      "name": "pCylinder7_standardSurface1_0",
      "primitives": [
        {
          "attributes": {
            "NORMAL": 1,
            "POSITION": 0,
            "TEXCOORD_0": 2
          },
          "indices": 3,
          "material": 0,
          "mode": 4
        }
      ]
    }
  ],
  "nodes": [
    {
      "children": [
        1
      ],
      "matrix": [
        1.0,
        0.0,
        0.0,
        0.0,
        0.0,
        2.220446049250313e-16,
        -1.0,
        0.0,
        0.0,
        1.0,
        2.220446049250313e-16,
        0.0,
        0.0,
        0.0,
        0.0,
        1.0
      ],
      "name": "Sketchfab_model"
    },
    {
      "children": [
        2
      ],
      "matrix": [
        0.009999999776482582,
        0.0,
        0.0,
        0.0,
        0.0,
        0.0,
        0.009999999776482582,
        0.0,
        0.0,
        -0.009999999776482582,
        0.0,
        0.0,
        0.0,
        0.0,
        0.0,
        1.0
      ],
      "name": "5b77a269e1a84d9c860594c8b20938c3.fbx"
    },
    {
      "children": [
        3
      ],
      "name": "RootNode"
    },
    {
      "children": [
        4
      ],
      "matrix": [
        9.860050201416016,
        0.0,
        0.0,
        0.0,
        0.0,
        1.45809006690979,
        0.0,
        0.0,
        0.0,
        0.0,
        9.860050201416016,
        0.0,
        0.0,
        0.0,
        0.0,
        1.0
      ],
      "name": "pCylinder7"
    },
    {
      "mesh": 0,
      "name": "pCylinder7_standardSurface1_0"
    }
  ],
  "scene": 0,
  "scenes": [
    {
      "name": "Sketchfab_Scene",
      "nodes": [
        0
      ]
    }
  ]
}
