{
  "accessors": [
    {
      "bufferView": 2,
      "componentType": 5126,
      "count": 4733,
      "max": [
        1.0236201286315918,
        2.258648633956909,
        0.08170873671770096
      ],
      "min": [
        -1.0236201286315918,
        -2.2586488723754883,
        0.08170868456363678
      ],
      "type": "VEC3"
    },
    {
      "bufferView": 2,
      "byteOffset": 56796,
      "componentType": 5126,
      "count": 4733,
      "max": [
        8.427546163147781e-07,
        2.7038327061745804e-06,
        1.0
      ],
      "min": [
        -8.307112580041576e-07,
        -1.6453534499305533e-06,
        -1.0
      ],
      "type": "VEC3"
    },
    {
      "bufferView": 1,
      "componentType": 5126,
      "count": 4733,
      "max": [
        0.868567705154419,
        0.9873881936073303
      ],
      "min": [
        0.0791652500629425,
        0.0069406479597091675
      ],
      "type": "VEC2"
    },
    {
      "bufferView": 0,
      "componentType": 5125,
      "count": 7488,
      "type": "SCALAR"
    },
    {
      "bufferView": 2,
      "byteOffset": 113592,
      "componentType": 5126,
      "count": 10063,
      "max": [
        1.0236201286315918,
        2.258648633956909,
        0.09270873665809631
      ],
      "min": [
        -1.0236201286315918,
        -2.2586488723754883,
        0.08170868456363678
      ],
      "type": "VEC3"
    },
    {
      "bufferView": 2,
      "byteOffset": 234348,
      "componentType": 5126,
      "count": 10063,
      "max": [
        1.0,
        1.0,
        1.0
      ],
      "min": [
        -1.0,
        -1.0,
        -1.0
      ],
      "type": "VEC3"
    },
    {
      "bufferView": 1,
      "byteOffset": 37864,
      "componentType": 5126,
      "count": 10063,
      "max": [
        0.0,
        0.0
      ],
      "min": [
        0.0,
        0.0
      ],
      "type": "VEC2"
    },
    {
      "bufferView": 0,
      "byteOffset": 29952,
      "componentType": 5125,
      "count": 16032,
      "type": "SCALAR"
    },
    {
      "bufferView": 2,
      "byteOffset": 355104,
      "componentType": 5126,
      "count": 861,
      "max": [
        1.2007685899734497,
        1.2799146175384521,
        0.04481878504157066
      ],
      "min": [
        1.1633665561676025,
        0.7457531690597534,
        -0.04481878876686096
      ],
      "type": "VEC3"
    },
    {
      "bufferView": 2,
      "byteOffset": 365436,
      "componentType": 5126,
      "count": 861,
      "max": [
        1.0,
        1.0,
        1.0
      ],
      "min": [
        -3.051944077014923e-05,
        -1.0,
        -1.0
      ],
      "type": "VEC3"
    },
    {
      "bufferView": 1,
      "byteOffset": 118368,
      "componentType": 5126,
      "count": 861,
      "max": [
        0.0,
        0.0
      ],
      "min": [
        0.0,
        0.0
      ],
      "type": "VEC2"
    },
    {
      "bufferView": 0,
      "byteOffset": 94080,
      "componentType": 5125,
      "count": 4992,
      "type": "SCALAR"
    },
    {
      "bufferView": 2,
      "byteOffset": 375768,
      "componentType": 5126,
      "count": 1722,
      "max": [
        -1.1596585512161255,
        1.4079080820083618,
        0.04563134163618088
      ],
      "min": [
        -1.200209379196167,
        0.6076592206954956,
        -0.04563134163618088
      ],
      "type": "VEC3"
    },
    {
      "bufferView": 2,
      "byteOffset": 396432,
      "componentType": 5126,
      "count": 1722,
      "max": [
        0.0,
        1.0,
        1.0
      ],
      "min": [
        -1.0,
        -1.0,
        -1.0
      ],
      "type": "VEC3"
    },
    {
      "bufferView": 1,
      "byteOffset": 125256,
      "componentType": 5126,
      "count": 1722,
      "max": [
        0.0,
        0.0
      ],
      "min": [
        0.0,
        0.0
      ],
      "type": "VEC2"
    },
    {
      "bufferView": 0,
      "byteOffset": 114048,
      "componentType": 5125,
      "count": 9984,
      "type": "SCALAR"
    },
    {
      "bufferView": 2,
      "byteOffset": 417096,
      "componentType": 5126,
      "count": 2097,
      "max": [
        1.1902366876602173,
        0.22610513865947723,
        0.04296927899122238
      ],
      "min": [
        1.152706265449524,
        -0.3526824414730072,
        -0.04296927899122238
      ],
      "type": "VEC3"
    },
    {
      "bufferView": 2,
      "byteOffset": 442260,
      "componentType": 5126,
      "count": 2097,
      "max": [
        1.0,
        1.0,
        1.0
      ],
      "min": [
        0.0,
        -1.0,
        -1.0
      ],
      "type": "VEC3"
    },
    {
      "bufferView": 1,
      "byteOffset": 139032,
      "componentType": 5126,
      "count": 2097,
      "max": [
        0.0,
        0.0
      ],
      "min": [
        0.0,
        0.0
      ],
      "type": "VEC2"
    },
    {
      "bufferView": 0,
      "byteOffset": 153984,
      "componentType": 5125,
      "count": 12288,
      "type": "SCALAR"
    },
    {
      "bufferView": 2,
      "byteOffset": 467424,
      "componentType": 5126,
      "count": 45,
      "max": [
        1.18095064163208,
        -0.262405663728714,
        0.015192829072475433
      ],
      "min": [
        1.1809502840042114,
        -0.2884436845779419,
        -0.015192829072475433
      ],
      "type": "VEC3"
    },
    {
      "bufferView": 2,
      "byteOffset": 467964,
      "componentType": 5126,
      "count": 45,
      "max": [
        1.0,
        3.051944077014923e-05,
        9.155552834272385e-05
      ],
      "min": [
        1.0,
        -3.0518509447574615e-05,
        -6.103701889514923e-05
      ],
      "type": "VEC3"
    },
    {
      "bufferView": 1,
      "byteOffset": 155808,
      "componentType": 5126,
      "count": 45,
      "max": [
        0.0,
        0.0
      ],
      "min": [
        0.0,
        0.0
      ],
      "type": "VEC2"
    },
    {
      "bufferView": 0,
      "byteOffset": 203136,
      "componentType": 5125,
      "count": 192,
      "type": "SCALAR"
    },
    {
      "bufferView": 2,
      "byteOffset": 468504,
      "componentType": 5126,
      "count": 20359,
      "max": [
        1.1900852918624878,
        2.3943283557891846,
        0.10323885083198547
      ],
      "min": [
        -1.1900852918624878,
        -2.394392251968384,
        -0.10323885083198547
      ],
      "type": "VEC3"
    },
    {
      "bufferView": 2,
      "byteOffset": 712812,
      "componentType": 5126,
      "count": 20359,
      "max": [
        1.0,
        1.0,
        1.0
      ],
      "min": [
        -1.0,
        -1.0,
        -1.0
      ],
      "type": "VEC3"
    },
    {
      "bufferView": 1,
      "byteOffset": 156168,
      "componentType": 5126,
      "count": 20359,
      "max": [
        0.0,
        0.0
      ],
      "min": [
        0.0,
        0.0
      ],
      "type": "VEC2"
    },
    {
      "bufferView": 0,
      "byteOffset": 203904,
      "componentType": 5125,
      "count": 119040,
      "type": "SCALAR"
    },
    {
      "bufferView": 2,
      "byteOffset": 957120,
      "componentType": 5126,
      "count": 1931,
      "max": [
        0.812069296836853,
        2.2483575344085693,
        0.0976237878203392
      ],
      "min": [
        -0.812069296836853,
        -2.3935985565185547,
        -0.044548504054546356
      ],
      "type": "VEC3"
    },
    {
      "bufferView": 2,
      "byteOffset": 980292,
      "componentType": 5126,
      "count": 1931,
      "max": [
        1.0,
        0.864633321762085,
        1.0
      ],
      "min": [
        -1.0,
        -1.0,
        -1.0
      ],
      "type": "VEC3"
    },
    {
      "bufferView": 1,
      "byteOffset": 319040,
      "componentType": 5126,
      "count": 1931,
      "max": [
        0.0,
        0.0
      ],
      "min": [
        0.0,
        0.0
      ],
      "type": "VEC2"
    },
    {
      "bufferView": 0,
      "byteOffset": 680064,
      "componentType": 5125,
      "count": 10176,
      "type": "SCALAR"
    },
    {
      "bufferView": 2,
      "byteOffset": 1003464,
      "componentType": 5126,
      "count": 10155,
      "max": [
        1.1292617321014404,
        2.346686601638794,
        0.10124213248491287
      ],
      "min": [
        -1.1292617321014404,
        -2.346686601638794,
        -0.13586200773715973
      ],
      "type": "VEC3"
    },
    {
      "bufferView": 2,
      "byteOffset": 1125324,
      "componentType": 5126,
      "count": 10155,
      "max": [
        1.0,
        1.0,
        1.0
      ],
      "min": [
        -1.0,
        -1.0,
        -0.06665322929620743
      ],
      "type": "VEC3"
    },
    {
      "bufferView": 1,
      "byteOffset": 334488,
      "componentType": 5126,
      "count": 10155,
      "max": [
        1.0000001192092896,
        1.0000001192092896
      ],
      "min": [
        0.0,
        0.0
      ],
      "type": "VEC2"
    },
    {
      "bufferView": 0,
      "byteOffset": 720768,
      "componentType": 5125,
      "count": 49728,
      "type": "SCALAR"
    },
    {
      "bufferView": 2,
      "byteOffset": 1247184,
      "componentType": 5126,
      "count": 384,
      "max": [
        0.9582503437995911,
        2.1783695220947266,
        -0.136239156126976
      ],
      "min": [
        0.6779760718345642,
        1.4333523511886597,
        -0.1362391859292984
      ],
      "type": "VEC3"
    },
    {
      "bufferView": 2,
      "byteOffset": 1251792,
      "componentType": 5126,
      "count": 384,
      "max": [
        2.9711943128063467e-08,
        -0.0,
        1.0
      ],
      "min": [
        -2.971308887822488e-08,
        -1.6431101812486304e-07,
        1.0
      ],
      "type": "VEC3"
    },
    {
      "bufferView": 1,
      "byteOffset": 415728,
      "componentType": 5126,
      "count": 384,
      "max": [
        1.0000001192092896,
        0.8257813453674316
      ],
      "min": [
        0.5,
        0.5
      ],
      "type": "VEC2"
    },
    {
      "bufferView": 0,
      "byteOffset": 919680,
      "componentType": 5125,
      "count": 768,
      "type": "SCALAR"
    },
    {
      "bufferView": 2,
      "byteOffset": 1256400,
      "componentType": 5126,
      "count": 7744,
      "max": [
        1.0029691457748413,
        2.2163140773773193,
        -0.12325605750083923
      ],
      "min": [
        0.6332572102546692,
        1.3954076766967773,
        -0.16048993170261383
      ],
      "type": "VEC3"
    },
    {
      "bufferView": 2,
      "byteOffset": 1349328,
      "componentType": 5126,
      "count": 7744,
      "max": [
        1.0,
        1.0,
        1.0
      ],
      "min": [
        -1.0,
        -1.0,
        -1.0
      ],
      "type": "VEC3"
    },
    {
      "bufferView": 1,
      "byteOffset": 418800,
      "componentType": 5126,
      "count": 7744,
      "max": [
        0.0,
        0.0
      ],
      "min": [
        0.0,
        0.0
      ],
      "type": "VEC2"
    },
    {
      "bufferView": 0,
      "byteOffset": 922752,
      "componentType": 5125,
      "count": 46080,
      "type": "SCALAR"
    },
    {
      "bufferView": 2,
      "byteOffset": 1442256,
      "componentType": 5126,
      "count": 1337,
      "max": [
        0.875283420085907,
        2.2436940670013428,
        0.08255462348461151
      ],
      "min": [
        0.29856202006340027,
        1.539794921875,
        -0.14801143109798431
      ],
      "type": "VEC3"
    },
    {
      "bufferView": 2,
      "byteOffset": 1458300,
      "componentType": 5126,
      "count": 1337,
      "max": [
        1.0,
        1.0,
        1.0
      ],
      "min": [
        -1.0,
        -1.0,
        -1.0
      ],
      "type": "VEC3"
    },
    {
      "bufferView": 1,
      "byteOffset": 480752,
      "componentType": 5126,
      "count": 1337,
      "max": [
        0.0,
        0.0
      ],
      "min": [
        0.0,
        0.0
      ],
      "type": "VEC2"
    },
    {
      "bufferView": 0,
      "byteOffset": 1107072,
      "componentType": 5125,
      "count": 7584,
      "type": "SCALAR"
    },
    {
      "bufferView": 2,
      "byteOffset": 1474344,
      "componentType": 5126,
      "count": 967,
      "max": [
        0.9611892700195313,
        2.1861815452575684,
        -0.15277236700057983
      ],
      "min": [
        0.675037145614624,
        1.4255402088165283,
        -0.15315686166286469
      ],
      "type": "VEC3"
    },
    {
      "bufferView": 2,
      "byteOffset": 1485948,
      "componentType": 5126,
      "count": 967,
      "max": [
        1.0,
        0.9995286464691162,
        1.0
      ],
      "min": [
        -1.0,
        -0.9995286464691162,
        -1.0
      ],
      "type": "VEC3"
    },
    {
      "bufferView": 1,
      "byteOffset": 491448,
      "componentType": 5126,
      "count": 967,
      "max": [
        1.0000001192092896,
        0.8257813453674316
      ],
      "min": [
        0.5,
        0.5
      ],
      "type": "VEC2"
    },
    {
      "bufferView": 0,
      "byteOffset": 1137408,
      "componentType": 5125,
      "count": 1824,
      "type": "SCALAR"
    }
  ],
  "asset": {
    "extras": {
      "author": "Naudaff3D (https://sketchfab.com/Naudaff3D)",
      "license": "CC-BY-4.0 (http://creativecommons.org/licenses/by/4.0/)",
      "source": "https://sketchfab.com/3d-models/smartphone-793ce4333ddb4cb8ab30c6b1da96df81",
      "title": "Smartphone"
    },
    "generator": "Sketchfab-14.68.0",
    "version": "2.0"
  },
  "bufferViews": [
    {
      "buffer": 0,
      "byteLength": 1144704,
      "name": "floatBufferViews",
      "target": 34963
    },
    {
      "buffer": 0,
      "byteLength": 499184,
      "byteOffset": 1144704,
      "byteStride": 8,
      "name": "floatBufferViews",
      "target": 34962
    },
    {
      "buffer": 0,
      "byteLength": 1497552,
      "byteOffset": 1643888,
      "byteStride": 12,
      "name": "floatBufferViews",
      "target": 34962
    }
  ],
  "buffers": [
    {
      "byteLength": 3141440,
      "uri": "scene.bin"
    }
  ],
  "extensionsUsed": [
    "KHR_materials_emissive_strength",
    "KHR_materials_clearcoat"
  ],
  "images": [
    {
      "uri": "textures/Lock_Screen_baseColor.jpeg"
    },
    {
      "uri": "textures/Lock_Screen_emissive.jpeg"
    }
  ],
  "materials": [
    {
      "doubleSided": true,
      "emissiveFactor": [
        1.0,
        1.0,
        1.0
      ],
      "emissiveTexture": {
        "index": 1
      },
      "extensions": {
        "KHR_materials_emissive_strength": {
          "emissiveStrength": 2.3416683177111466
        }
      },
      "name": "Lock_Screen",
      "pbrMetallicRoughness": {
        "baseColorTexture": {
          "index": 0
        }
      }
    },
    {
      "alphaMode": "BLEND",
      "doubleSided": true,
      "name": "Glass",
      "pbrMetallicRoughness": {
        "baseColorFactor": [
          0.0,
          0.0,
          0.0,
          0.16507873188228367
        ]
      }
    },
    {
      "doubleSided": true,
      "name": "Black_2",
      "pbrMetallicRoughness": {
        "baseColorFactor": [
          0.0469616,
          0.0469616,
          0.0469616,
          1.0
        ],
        "roughnessFactor": 0.2
      }
    },
    {
      "doubleSided": true,
      "extensions": {
        "KHR_materials_clearcoat": {
          "clearcoatFactor": 1.0,
          "clearcoatRoughnessFactor": 0.04
        }
      },
      "name": "Color_1",
      "pbrMetallicRoughness": {
        "baseColorFactor": [
          0.063721,
          0.063721,
          0.063721,
          1.0
        ],
        "roughnessFactor": 0.2
      }
    },
    {
      "doubleSided": true,
      "name": "Black",
      "pbrMetallicRoughness": {
        "baseColorFactor": [
          0.0188486,
          0.0188486,
          0.0188486,
          1.0
        ],
        "roughnessFactor": 0.2
      }
    },
    {
      "doubleSided": true,
      "extensions": {
        "KHR_materials_clearcoat": {
          "clearcoatFactor": 1.0,
          "clearcoatRoughnessFactor": 0.04
        }
      },
      "name": "Color_2",
      "pbrMetallicRoughness": {
        "baseColorFactor": [
          0.0134106,
          0.0134106,
          0.0134106,
          1.0
        ],
        "metallicFactor": 0.0,
        "roughnessFactor": 0.1
      }
    },
    {
      "doubleSided": true,
      "name": "Black_3",
      "pbrMetallicRoughness": {
        "baseColorFactor": [
          0.0219793,
          0.0219793,
          0.0219793,
          1.0
        ],
        "roughnessFactor": 0.2
      }
    },
    {
      "doubleSided": true,
      "name": "Camera_Lens",
      "pbrMetallicRoughness": {
        "baseColorFactor": [
          0.8,
          0.8,
          0.8,
          1.0
        ],
        "roughnessFactor": 0.0
      }
    }
  ],
  "meshes": [
    {
      "name": "Object_0",
      "primitives": [
        {
          "attributes": {
            "NORMAL": 1,
            "POSITION": 0,
            "TEXCOORD_0": 2
          },
          "indices": 3,
          "material": 0,
          "mode": 4
        }
      ]
    },
    {
      "name": "Object_1",
      "primitives": [
        {
          "attributes": {
            "NORMAL": 5,
            "POSITION": 4,
            "TEXCOORD_0": 6
          },
          "indices": 7,
          "material": 1,
          "mode": 4
        }
      ]
    },
    {
      "name": "Object_2",
      "primitives": [
        {
          "attributes": {
            "NORMAL": 9,
            "POSITION": 8,
            "TEXCOORD_0": 10
          },
          "indices": 11,
          "material": 2,
          "mode": 4
        }
      ]
    },
    {
      "name": "Object_3",
      "primitives": [
        {
          "attributes": {
            "NORMAL": 13,
            "POSITION": 12,
            "TEXCOORD_0": 14
          },
          "indices": 15,
          "material": 2,
          "mode": 4
        }
      ]
    },
    {
      "name": "Object_4",
      "primitives": [
        {
          "attributes": {
            "NORMAL": 17,
            "POSITION": 16,
            "TEXCOORD_0": 18
          },
          "indices": 19,
          "material": 3,
          "mode": 4
        }
      ]
    },
    {
      "name": "Object_5",
      "primitives": [
        {
          "attributes": {
            "NORMAL": 21,
            "POSITION": 20,
            "TEXCOORD_0": 22
          },
          "indices": 23,
          "material": 4,
          "mode": 4
        }
      ]
    },
    {
      "name": "Object_6",
      "primitives": [
        {
          "attributes": {
            "NORMAL": 25,
            "POSITION": 24,
            "TEXCOORD_0": 26
          },
          "indices": 27,
          "material": 3,
          "mode": 4
        }
      ]
    },
    {
      "name": "Object_7",
      "primitives": [
        {
          "attributes": {
            "NORMAL": 29,
            "POSITION": 28,
            "TEXCOORD_0": 30
          },
          "indices": 31,
          "material": 4,
          "mode": 4
        }
      ]
    },
    {
      "name": "Object_8",
      "primitives": [
        {
          "attributes": {
            "NORMAL": 33,
            "POSITION": 32,
            "TEXCOORD_0": 34
          },
          "indices": 35,
          "material": 5,
          "mode": 4
        }
      ]
    },
    {
      "name": "Object_9",
      "primitives": [
        {
          "attributes": {
            "NORMAL": 37,
            "POSITION": 36,
            "TEXCOORD_0": 38
          },
          "indices": 39,
          "material": 6,
          "mode": 4
        }
      ]
    },
    {
      "name": "Object_10",
      "primitives": [
        {
          "attributes": {
            "NORMAL": 41,
            "POSITION": 40,
            "TEXCOORD_0": 42
          },
          "indices": 43,
          "material": 2,
          "mode": 4
        }
      ]
    },
    {
      "name": "Object_11",
      "primitives": [
        {
          "attributes": {
            "NORMAL": 45,
            "POSITION": 44,
            "TEXCOORD_0": 46
          },
          "indices": 47,
          "material": 7,
          "mode": 4
        }
      ]
    },
    {
      "name": "Object_12",
      "primitives": [
        {
          "attributes": {
            "NORMAL": 49,
            "POSITION": 48,
            "TEXCOORD_0": 50
          },
          "indices": 51,
          "material": 1,
          "mode": 4
        }
      ]
    }
  ],
  "nodes": [
    {
      "children": [
        1
      ],
      "matrix": [
        1.0,
        0.0,
        0.0,
        0.0,
        0.0,
        2.220446049250313e-16,
        -1.0,
        0.0,
        0.0,
        1.0,
        2.220446049250313e-16,
        0.0,
        0.0,
        0.0,
        0.0,
        1.0
      ],
      "name": "Sketchfab_model"
    },
    {
      "children": [
        2
      ],
      "name": "root"
    },
    {
      "children": [
        3,
        5,
        7,
        9,
        11,
        14
      ],
      "matrix": [
        1.0,
        0.0,
        0.0,
        0.0,
        0.0,
        2.220446049250313e-16,
        1.0,
        0.0,
        0.0,
        -1.0,
        2.220446049250313e-16,
        0.0,
        0.0,
        0.0,
        0.0,
        1.0
      ],
      "name": "GLTF_SceneRootNode"
    },
    {
      "children": [
        4
      ],
      "matrix": [
        1.0,
        0.0,
        0.0,
        0.0,
        0.0,
        1.0,
        0.0,
        0.0,
        0.0,
        0.0,
        1.0,
        0.0,
        0.09999976307153702,
        2.3965742588043213,
        -0.02738359570503235,
        1.0
      ],
      "name": "Plane.003_5"
    },
    {
      "mesh": 0,
      "name": "Object_4"
    },
    {
      "children": [
        6
      ],
      "matrix": [
        1.0,
        0.0,
        0.0,
        0.0,
        0.0,
        1.0,
        0.0,
        0.0,
        0.0,
        0.0,
        1.0,
        0.0,
        0.09999976307153702,
        2.3965742588043213,
        0.0,
        1.0
      ],
      "name": "Plane.004_6"
    },
    {
      "mesh": 1,
      "name": "Object_6"
    },
    {
      "children": [
        8
      ],
      "matrix": [
        1.0,
        0.0,
        0.0,
        0.0,
        0.0,
        1.0,
        0.0,
        0.0,
        0.0,
        0.0,
        1.0,
        0.0,
        0.10564503818750381,
        2.3965742588043213,
        0.0,
        1.0
      ],
      "name": "Plane.005_7"
    },
    {
      "mesh": 2,
      "name": "Object_8"
    },
    {
      "children": [
        10
      ],
      "matrix": [
        1.0,
        0.0,
        0.0,
        0.0,
        0.0,
        1.0,
        0.0,
        0.0,
        0.0,
        0.0,
        1.0,
        0.0,
        0.09439263492822647,
        2.3965742588043213,
        0.0,
        1.0
      ],
      "name": "Plane.006_8"
    },
    {
      "mesh": 3,
      "name": "Object_10"
    },
    {
      "children": [
        12,
        13
      ],
      "matrix": [
        1.0,
        0.0,
        0.0,
        0.0,
        0.0,
        1.0,
        0.0,
        0.0,
        0.0,
        0.0,
        1.0,
        0.0,
        0.09999976307153702,
        2.3965742588043213,
        0.0,
        1.0
      ],
      "name": "Plane.007_9"
    },
    {
      "mesh": 4,
      "name": "Object_12"
    },
    {
      "mesh": 5,
      "name": "Object_13"
    },
    {
      "children": [
        15,
        16,
        17,
        18,
        19,
        20,
        21
      ],
      "matrix": [
        1.0,
        0.0,
        0.0,
        0.0,
        0.0,
        1.0,
        0.0,
        0.0,
        0.0,
        0.0,
        1.0,
        0.0,
        0.09999976307153702,
        2.3965742588043213,
        0.0,
        1.0
      ],
      "name": "Plane.008_10"
    },
    {
      "mesh": 6,
      "name": "Object_15"
    },
    {
      "mesh": 7,
      "name": "Object_16"
    },
    {
      "mesh": 8,
      "name": "Object_17"
    },
    {
      "mesh": 9,
      "name": "Object_18"
    },
    {
      "mesh": 10,
      "name": "Object_19"
    },
    {
      "mesh": 11,
      "name": "Object_20"
    },
    {
      "mesh": 12,
      "name": "Object_21"
    }
  ],
  "samplers": [
    {
      "magFilter": 9729,
      "minFilter": 9987,
      "wrapS": 10497,
      "wrapT": 10497
    }
  ],
  "scene": 0,
  "scenes": [
    {
      "name": "Sketchfab_Scene",
      "nodes": [
        0
      ]
    }
  ],
  "textures": [
    {
      "sampler": 0,
      "source": 0
    },
    {
      "sampler": 0,
      "source": 1
    }
  ]
}
