{
  "accessors": [
    {
      "bufferView": 1,
      "componentType": 5126,
      "count": 65532,
      "max": [
        20.260805130004883,
        29.967023849487305,
        18.080551147460938
      ],
      "min": [
        -23.813365936279297,
        -22.71678352355957,
        0.517425537109375
      ],
      "type": "VEC3"
    },
    {
      "bufferView": 1,
      "byteOffset": 786384,
      "componentType": 5126,
      "count": 65532,
      "max": [
        0.9998093247413635,
        0.9997686743736267,
        1.0
      ],
      "min": [
        -0.9999285340309143,
        -0.9998663067817688,
        -0.7846423983573914
      ],
      "type": "VEC3"
    },
    {
      "bufferView": 2,
      "componentType": 5126,
      "count": 65532,
      "max": [
        0.7568627595901489,
        0.7333333492279053,
        0.6941176652908325,
        1.0
      ],
      "min": [
        0.0,
        0.01568627543747425,
        0.0,
        1.0
      ],
      "type": "VEC4"
    },
    {
      "bufferView": 0,
      "componentType": 5125,
      "count": 337266,
      "type": "SCALAR"
    },
    {
      "bufferView": 1,
      "byteOffset": 1572768,
      "componentType": 5126,
      "count": 65532,
      "max": [
        23.73163604736328,
        29.967023849487305,
        18.098594665527344
      ],
      "min": [
        -23.813365936279297,
        -22.71678352355957,
        0.5174102783203125
      ],
      "type": "VEC3"
    },
    {
      "bufferView": 1,
      "byteOffset": 2359152,
      "componentType": 5126,
      "count": 65532,
      "max": [
        0.9998941421508789,
        0.9963779449462891,
        1.0
      ],
      "min": [
        -0.9997208118438721,
        -0.999992311000824,
        -1.0
      ],
      "type": "VEC3"
    },
    {
      "bufferView": 2,
      "byteOffset": 1048512,
      "componentType": 5126,
      "count": 65532,
      "max": [
        0.7607843279838562,
        0.7333333492279053,
        0.7019608020782471,
        1.0
      ],
      "min": [
        0.0,
        0.007843137718737125,
        0.0,
        1.0
      ],
      "type": "VEC4"
    },
    {
      "bufferView": 0,
      "byteOffset": 1349064,
      "componentType": 5125,
      "count": 328737,
      "type": "SCALAR"
    },
    {
      "bufferView": 1,
      "byteOffset": 3145536,
      "componentType": 5126,
      "count": 65532,
      "max": [
        14.503039360046387,
        29.967023849487305,
        17.98870849609375
      ],
      "min": [
        -23.813365936279297,
        -22.71678352355957,
        0.5174179077148438
      ],
      "type": "VEC3"
    },
    {
      "bufferView": 1,
      "byteOffset": 3931920,
      "componentType": 5126,
      "count": 65532,
      "max": [
        0.9995033740997314,
        0.999982476234436,
        0.9999999403953552
      ],
      "min": [
        -0.9999953508377075,
        -0.9999911189079285,
        -1.0
      ],
      "type": "VEC3"
    },
    {
      "bufferView": 2,
      "byteOffset": 2097024,
      "componentType": 5126,
      "count": 65532,
      "max": [
        0.7607843279838562,
        0.7372549176216125,
        0.7137255072593689,
        1.0
      ],
      "min": [
        0.0,
        0.01568627543747425,
        0.0,
        1.0
      ],
      "type": "VEC4"
    },
    {
      "bufferView": 0,
      "byteOffset": 2664012,
      "componentType": 5125,
      "count": 325548,
      "type": "SCALAR"
    },
    {
      "bufferView": 1,
      "byteOffset": 4718304,
      "componentType": 5126,
      "count": 65532,
      "max": [
        20.414073944091797,
        26.509260177612305,
        18.098594665527344
      ],
      "min": [
        -23.813365936279297,
        -22.704442977905273,
        0.517425537109375
      ],
      "type": "VEC3"
    },
    {
      "bufferView": 1,
      "byteOffset": 5504688,
      "componentType": 5126,
      "count": 65532,
      "max": [
        0.9993900656700134,
        0.9931833148002625,
        0.9999997615814209
      ],
      "min": [
        -0.9999307990074158,
        -0.9998857975006104,
        -0.9746130108833313
      ],
      "type": "VEC3"
    },
    {
      "bufferView": 2,
      "byteOffset": 3145536,
      "componentType": 5126,
      "count": 65532,
      "max": [
        0.7607843279838562,
        0.7372549176216125,
        0.7098039388656616,
        1.0
      ],
      "min": [
        0.0,
        0.062745101749897,
        0.0,
        1.0
      ],
      "type": "VEC4"
    },
    {
      "bufferView": 0,
      "byteOffset": 3966204,
      "componentType": 5125,
      "count": 317634,
      "type": "SCALAR"
    },
    {
      "bufferView": 1,
      "byteOffset": 6291072,
      "componentType": 5126,
      "count": 65532,
      "max": [
        23.73163604736328,
        29.967023849487305,
        17.701324462890625
      ],
      "min": [
        -21.23383331298828,
        -22.71678352355957,
        0.517425537109375
      ],
      "type": "VEC3"
    },
    {
      "bufferView": 1,
      "byteOffset": 7077456,
      "componentType": 5126,
      "count": 65532,
      "max": [
        1.0,
        0.9999210834503174,
        0.9999997019767761
      ],
      "min": [
        -0.9999271631240845,
        -1.0,
        -1.0
      ],
      "type": "VEC3"
    },
    {
      "bufferView": 2,
      "byteOffset": 4194048,
      "componentType": 5126,
      "count": 65532,
      "max": [
        0.7843137383460999,
        0.7568627595901489,
        0.7254902124404907,
        1.0
      ],
      "min": [
        0.0,
        0.01568627543747425,
        0.0,
        1.0
      ],
      "type": "VEC4"
    },
    {
      "bufferView": 0,
      "byteOffset": 5236740,
      "componentType": 5125,
      "count": 326541,
      "type": "SCALAR"
    },
    {
      "bufferView": 1,
      "byteOffset": 7863840,
      "componentType": 5126,
      "count": 65532,
      "max": [
        23.73163604736328,
        29.967023849487305,
        18.014114379882813
      ],
      "min": [
        -23.813365936279297,
        -22.71678352355957,
        0.517425537109375
      ],
      "type": "VEC3"
    },
    {
      "bufferView": 1,
      "byteOffset": 8650224,
      "componentType": 5126,
      "count": 65532,
      "max": [
        0.9999662041664124,
        1.0,
        1.0
      ],
      "min": [
        -1.0,
        -0.999992311000824,
        -1.0
      ],
      "type": "VEC3"
    },
    {
      "bufferView": 2,
      "byteOffset": 5242560,
      "componentType": 5126,
      "count": 65532,
      "max": [
        0.772549033164978,
        0.7450980544090271,
        0.7137255072593689,
        1.0
      ],
      "min": [
        0.0,
        0.01568627543747425,
        0.0,
        1.0
      ],
      "type": "VEC4"
    },
    {
      "bufferView": 0,
      "byteOffset": 6542904,
      "componentType": 5125,
      "count": 254484,
      "type": "SCALAR"
    },
    {
      "bufferView": 1,
      "byteOffset": 9436608,
      "componentType": 5126,
      "count": 23320,
      "max": [
        23.73163604736328,
        29.17366600036621,
        18.076194763183594
      ],
      "min": [
        -23.813365936279297,
        -22.71678352355957,
        0.517425537109375
      ],
      "type": "VEC3"
    },
    {
      "bufferView": 1,
      "byteOffset": 9716448,
      "componentType": 5126,
      "count": 23320,
      "max": [
        0.9978246092796326,
        0.9900230169296265,
        0.9999990463256836
      ],
      "min": [
        -0.9997283816337585,
        -0.998623788356781,
        -1.0
      ],
      "type": "VEC3"
    },
    {
      "bufferView": 2,
      "byteOffset": 6291072,
      "componentType": 5126,
      "count": 23320,
      "max": [
        0.7490196228027344,
        0.7215686440467834,
        0.6941176652908325,
        1.0
      ],
      "min": [
        0.0,
        0.08235294371843338,
        0.01568627543747425,
        1.0
      ],
      "type": "VEC4"
    },
    {
      "bufferView": 0,
      "byteOffset": 7560840,
      "componentType": 5125,
      "count": 73020,
      "type": "SCALAR"
    }
  ],
  "asset": {
    "extras": {
      "author": "divyansh9972 (https://sketchfab.com/divyansh9972)",
      "license": "CC-BY-4.0 (http://creativecommons.org/licenses/by/4.0/)",
      "source": "https://sketchfab.com/3d-models/eraser-photoscan-96daf015986d48e2b56dc639e2f6b1df",
      "title": "ERASER | PhotoScan"
    },
    "generator": "Sketchfab-12.73.0",
    "version": "2.0"
  },
  "bufferViews": [
    {
      "buffer": 0,
      "byteLength": 7852920,
      "name": "floatBufferViews",
      "target": 34963
    },
    {
      "buffer": 0,
      "byteLength": 9996288,
      "byteOffset": 7852920,
      "byteStride": 12,
      "name": "floatBufferViews",
      "target": 34962
    },
    {
      "buffer": 0,
      "byteLength": 6664192,
      "byteOffset": 17849208,
      "byteStride": 16,
      "name": "floatBufferViews",
      "target": 34962
    }
  ],
  "buffers": [
    {
      "byteLength": 24513400,
      "uri": "scene.bin"
    }
  ],
  "materials": [
    {
      "doubleSided": true,
      "name": "model_Material",
      "pbrMetallicRoughness": {
        "metallicFactor": 0.0
      }
    }
  ],
  "meshes": [
    {
      "name": "Object_0",
      "primitives": [
        {
          "attributes": {
            "COLOR_0": 2,
            "NORMAL": 1,
            "POSITION": 0
          },
          "indices": 3,
          "material": 0,
          "mode": 4
        }
      ]
    },
    {
      "name": "Object_1",
      "primitives": [
        {
          "attributes": {
            "COLOR_0": 6,
            "NORMAL": 5,
            "POSITION": 4
          },
          "indices": 7,
          "material": 0,
          "mode": 4
        }
      ]
    },
    {
      "name": "Object_2",
      "primitives": [
        {
          "attributes": {
            "COLOR_0": 10,
            "NORMAL": 9,
            "POSITION": 8
          },
          "indices": 11,
          "material": 0,
          "mode": 4
        }
      ]
    },
    {
      "name": "Object_3",
      "primitives": [
        {
          "attributes": {
            "COLOR_0": 14,
            "NORMAL": 13,
            "POSITION": 12
          },
          "indices": 15,
          "material": 0,
          "mode": 4
        }
      ]
    },
    {
      "name": "Object_4",
      "primitives": [
        {
          "attributes": {
            "COLOR_0": 18,
            "NORMAL": 17,
            "POSITION": 16
          },
          "indices": 19,
          "material": 0,
          "mode": 4
        }
      ]
    },
    {
      "name": "Object_5",
      "primitives": [
        {
          "attributes": {
            "COLOR_0": 22,
            "NORMAL": 21,
            "POSITION": 20
          },
          "indices": 23,
          "material": 0,
          "mode": 4
        }
      ]
    },
    {
      "name": "Object_6",
      "primitives": [
        {
          "attributes": {
            "COLOR_0": 26,
            "NORMAL": 25,
            "POSITION": 24
          },
          "indices": 27,
          "material": 0,
          "mode": 4
        }
      ]
    }
  ],
  "nodes": [
    {
      "children": [
        1
      ],
      "matrix": [
        1.0,
        0.0,
        0.0,
        0.0,
        0.0,
        2.220446049250313e-16,
        -1.0,
        0.0,
        0.0,
        1.0,
        2.220446049250313e-16,
        0.0,
        0.0,
        0.0,
        0.0,
        1.0
      ],
      "name": "Sketchfab_model"
    },
    {
      "children": [
        2,
        3,
        4,
        5,
        6,
        7,
        8
      ],
      "name": "model.obj.cleaner.materialmerger.gles"
    },
    {
      "mesh": 0,
      "name": "Object_2"
    },
    {
      "mesh": 1,
      "name": "Object_3"
    },
    {
      "mesh": 2,
      "name": "Object_4"
    },
    {
      "mesh": 3,
      "name": "Object_5"
    },
    {
      "mesh": 4,
      "name": "Object_6"
    },
    {
      "mesh": 5,
      "name": "Object_7"
    },
    {
      "mesh": 6,
      "name": "Object_8"
    }
  ],
  "scene": 0,
  "scenes": [
    {
      "name": "Sketchfab_Scene",
      "nodes": [
        0
      ]
    }
  ]
}
