{
  "accessors": [
    {
      "name": "Cylinder_7_1_0_positions",
      "componentType": 5126,
      "count": 658,
      "min": [
        -110.90888977050781,
        -78.49553680419922,
        -165.33694458007812
      ],
      "max": [
        110.90888214111328,
        138.29043579101562,
        184.2933349609375
      ],
      "type": "VEC3",
      "bufferView": 0,
      "byteOffset": 0
    },
    {
      "name": "Cylinder_7_1_0_normals",
      "componentType": 5126,
      "count": 658,
      "min": [
        -1,
        -0.9999995231628418,
        -1
      ],
      "max": [
        1,
        0.9987267851829529,
        1
      ],
      "type": "VEC3",
      "bufferView": 1,
      "byteOffset": 0
    },
    {
      "name": "Cylinder_7_1_0_texcoords",
      "componentType": 5126,
      "count": 658,
      "min": [
        0,
        0.6199150085449219
      ],
      "max": [
        0.9999880194664001,
        1
      ],
      "type": "VEC2",
      "bufferView": 2,
      "byteOffset": 0
    },
    {
      "name": "Cylinder_7_1_0_indices",
      "componentType": 5123,
      "count": 3228,
      "min": [
        0
      ],
      "max": [
        657
      ],
      "type": "SCALAR",
      "bufferView": 3,
      "byteOffset": 0
    },
    {
      "name": "Left_Propeller_1_0_positions",
      "componentType": 5126,
      "count": 606,
      "min": [
        175.05184936523438,
        88.36260986328125,
        -153.51834106445312
      ],
      "max": [
        397.55108642578125,
        113.38099670410156,
        66.91709899902344
      ],
      "type": "VEC3",
      "bufferView": 0,
      "byteOffset": 7896
    },
    {
      "name": "Left_Propeller_1_0_normals",
      "componentType": 5126,
      "count": 606,
      "min": [
        -0.9807851314544678,
        -1,
        -0.9807851314544678
      ],
      "max": [
        0.9807853102684021,
        1,
        0.9807855486869812
      ],
      "type": "VEC3",
      "bufferView": 1,
      "byteOffset": 7896
    },
    {
      "name": "Left_Propeller_1_0_texcoords",
      "componentType": 5126,
      "count": 606,
      "min": [
        0.06959199905395508,
        9.999999974752427e-7
      ],
      "max": [
        0.5070319771766663,
        0.2586889863014221
      ],
      "type": "VEC2",
      "bufferView": 2,
      "byteOffset": 5264
    },
    {
      "name": "Left_Propeller_1_0_indices",
      "componentType": 5123,
      "count": 1056,
      "min": [
        0
      ],
      "max": [
        605
      ],
      "type": "SCALAR",
      "bufferView": 3,
      "byteOffset": 6456
    },
    {
      "name": "Left_Wing_1_0_positions",
      "componentType": 5126,
      "count": 570,
      "min": [
        95.93807220458984,
        68.34386444091797,
        -182.58316040039062
      ],
      "max": [
        427.22308349609375,
        116.8172836303711,
        96.7392578125
      ],
      "type": "VEC3",
      "bufferView": 0,
      "byteOffset": 15168
    },
    {
      "name": "Left_Wing_1_0_normals",
      "componentType": 5126,
      "count": 570,
      "min": [
        -1,
        -0.9996811747550964,
        -1
      ],
      "max": [
        1,
        1,
        1
      ],
      "type": "VEC3",
      "bufferView": 1,
      "byteOffset": 15168
    },
    {
      "name": "Left_Wing_1_0_texcoords",
      "componentType": 5126,
      "count": 570,
      "min": [
        0.08998200297355652,
        0.35017499327659607
      ],
      "max": [
        0.9049819707870483,
        0.7445849776268005
      ],
      "type": "VEC2",
      "bufferView": 2,
      "byteOffset": 10112
    },
    {
      "name": "Left_Wing_1_0_indices",
      "componentType": 5123,
      "count": 2004,
      "min": [
        0
      ],
      "max": [
        569
      ],
      "type": "SCALAR",
      "bufferView": 3,
      "byteOffset": 8568
    },
    {
      "name": "Right_Propeller_1_0_positions",
      "componentType": 5126,
      "count": 606,
      "min": [
        -399.0636901855469,
        88.36260986328125,
        -153.51834106445312
      ],
      "max": [
        -176.56448364257812,
        113.38099670410156,
        66.91709899902344
      ],
      "type": "VEC3",
      "bufferView": 0,
      "byteOffset": 22008
    },
    {
      "name": "Right_Propeller_1_0_normals",
      "componentType": 5126,
      "count": 606,
      "min": [
        -0.9807851314544678,
        -1,
        -0.9807851314544678
      ],
      "max": [
        0.9807853102684021,
        1,
        0.9807855486869812
      ],
      "type": "VEC3",
      "bufferView": 1,
      "byteOffset": 22008
    },
    {
      "name": "Right_Propeller_1_0_texcoords",
      "componentType": 5126,
      "count": 606,
      "min": [
        0.18999899923801422,
        0.23751600086688995
      ],
      "max": [
        0.6324419975280762,
        0.5041869878768921
      ],
      "type": "VEC2",
      "bufferView": 2,
      "byteOffset": 14672
    },
    {
      "name": "Right_Propeller_1_0_indices",
      "componentType": 5123,
      "count": 1056,
      "min": [
        0
      ],
      "max": [
        605
      ],
      "type": "SCALAR",
      "bufferView": 3,
      "byteOffset": 12576
    },
    {
      "name": "Right_Wing_1_0_positions",
      "componentType": 5126,
      "count": 569,
      "min": [
        -427.22320556640625,
        68.34386444091797,
        -182.58316040039062
      ],
      "max": [
        -95.93805694580078,
        116.8172836303711,
        96.7392578125
      ],
      "type": "VEC3",
      "bufferView": 0,
      "byteOffset": 29280
    },
    {
      "name": "Right_Wing_1_0_normals",
      "componentType": 5126,
      "count": 569,
      "min": [
        -1,
        -0.9996811747550964,
        -1
      ],
      "max": [
        1,
        1,
        1
      ],
      "type": "VEC3",
      "bufferView": 1,
      "byteOffset": 29280
    },
    {
      "name": "Right_Wing_1_0_texcoords",
      "componentType": 5126,
      "count": 569,
      "min": [
        0.08761399984359741,
        0.10039400309324265
      ],
      "max": [
        0.9997519850730896,
        0.6901810169219971
      ],
      "type": "VEC2",
      "bufferView": 2,
      "byteOffset": 19520
    },
    {
      "name": "Right_Wing_1_0_indices",
      "componentType": 5123,
      "count": 2004,
      "min": [
        0
      ],
      "max": [
        568
      ],
      "type": "SCALAR",
      "bufferView": 3,
      "byteOffset": 14688
    }
  ],
  "asset": {
    "generator": "obj2gltf",
    "version": "2.0"
  },
  "buffers": [
    {
      "name": "Drone",
      "byteLength": 114984,
      "uri": "data:application/octet-stream;base64,"
    }
  ],
  "bufferViews": [
    {
      "name": "bufferView_0",
      "buffer": 0,
      "byteLength": 36108,
      "byteOffset": 0,
      "byteStride": 12,
      "target": 34962
    },
    {
      "name": "bufferView_1",
      "buffer": 0,
      "byteLength": 36108,
      "byteOffset": 36108,
      "byteStride": 12,
      "target": 34962
    },
    {
      "name": "bufferView_2",
      "buffer": 0,
      "byteLength": 24072,
      "byteOffset": 72216,
      "byteStride": 8,
      "target": 34962
    },
    {
      "name": "bufferView_3",
      "buffer": 0,
      "byteLength": 18696,
      "byteOffset": 96288,
      "target": 34963
    }
  ],
  "materials": [
    {
      "name": "DefaultMaterial",
      "pbrMetallicRoughness": {
        "baseColorFactor": [
          0.6,
          0.6,
          0.6,
          1
        ],
        "metallicFactor": 0,
        "roughnessFactor": 1
      },
      "emissiveFactor": [
        0,
        0,
        0
      ],
      "alphaMode": "OPAQUE",
      "doubleSided": false
    }
  ],
  "meshes": [
    {
      "name": "Cylinder_7_1",
      "primitives": [
        {
          "attributes": {
            "POSITION": 0,
            "NORMAL": 1,
            "TEXCOORD_0": 2
          },
          "indices": 3,
          "material": 0,
          "mode": 4
        }
      ]
    },
    {
      "name": "Left_Propeller_1",
      "primitives": [
        {
          "attributes": {
            "POSITION": 4,
            "NORMAL": 5,
            "TEXCOORD_0": 6
          },
          "indices": 7,
          "material": 0,
          "mode": 4
        }
      ]
    },
    {
      "name": "Left_Wing_1",
      "primitives": [
        {
          "attributes": {
            "POSITION": 8,
            "NORMAL": 9,
            "TEXCOORD_0": 10
          },
          "indices": 11,
          "material": 0,
          "mode": 4
        }
      ]
    },
    {
      "name": "Right_Propeller_1",
      "primitives": [
        {
          "attributes": {
            "POSITION": 12,
            "NORMAL": 13,
            "TEXCOORD_0": 14
          },
          "indices": 15,
          "material": 0,
          "mode": 4
        }
      ]
    },
    {
      "name": "Right_Wing_1",
      "primitives": [
        {
          "attributes": {
            "POSITION": 16,
            "NORMAL": 17,
            "TEXCOORD_0": 18
          },
          "indices": 19,
          "material": 0,
          "mode": 4
        }
      ]
    }
  ],
  "nodes": [
    {
      "name": "Cylinder_7",
      "mesh": 0
    },
    {
      "name": "Left_Propeller",
      "mesh": 1
    },
    {
      "name": "Left_Wing",
      "mesh": 2
    },
    {
      "name": "Right_Propeller",
      "mesh": 3
    },
    {
      "name": "Right_Wing",
      "mesh": 4
    }
  ],
  "scene": 0,
  "scenes": [
    {
      "nodes": [
        0,
        1,
        2,
        3,
        4
      ]
    }
  ]
}
