{
  "accessors": [
    {
      "bufferView": 2,
      "componentType": 5126,
      "count": 8627,
      "max": [
        0.05999547988176346,
        0.06492031365633011,
        0.05999671295285225
      ],
      "min": [
        -0.05999625474214554,
        -5.747075192630291e-05,
        -0.059995029121637344
      ],
      "type": "VEC3"
    },
    {
      "bufferView": 2,
      "byteOffset": 103524,
      "componentType": 5126,
      "count": 8627,
      "max": [
        0.999956488609314,
        1.0,
        0.999954104423523
      ],
      "min": [
        -0.9999563694000244,
        -1.0,
        -0.9999580383300781
      ],
      "type": "VEC3"
    },
    {
      "bufferView": 1,
      "componentType": 5126,
      "count": 8627,
      "max": [
        0.9966405034065247,
        0.9999980330467224
      ],
      "min": [
        0.0007069373386912048,
        -0.02355555258691311
      ],
      "type": "VEC2"
    },
    {
      "bufferView": 0,
      "componentType": 5125,
      "count": 47376,
      "type": "SCALAR"
    }
  ],
  "asset": {
    "extras": {
      "author": "Juan Carlos (https://sketchfab.com/grove4069)",
      "license": "CC-BY-4.0 (http://creativecommons.org/licenses/by/4.0/)",
      "source": "https://sketchfab.com/3d-models/glass-bowl-bcf3a4e49ee14eeda2faca7c7455161d",
      "title": "Glass Bowl."
    },
    "generator": "Sketchfab-12.68.0",
    "version": "2.0"
  },
  "bufferViews": [
    {
      "buffer": 0,
      "byteLength": 189504,
      "name": "floatBufferViews",
      "target": 34963
    },
    {
      "buffer": 0,
      "byteLength": 69016,
      "byteOffset": 189504,
      "byteStride": 8,
      "name": "floatBufferViews",
      "target": 34962
    },
    {
      "buffer": 0,
      "byteLength": 207048,
      "byteOffset": 258520,
      "byteStride": 12,
      "name": "floatBufferViews",
      "target": 34962
    }
  ],
  "buffers": [
    {
      "byteLength": 465568,
      "uri": "scene.bin"
    }
  ],
  "extensionsRequired": [
    "KHR_materials_pbrSpecularGlossiness"
  ],
  "extensionsUsed": [
    "KHR_materials_pbrSpecularGlossiness"
  ],
  "materials": [
    {
      "alphaMode": "BLEND",
      "extensions": {
        "KHR_materials_pbrSpecularGlossiness": {
          "diffuseFactor": [
            0.11756859756097561,
            0.11756859756097561,
            0.11756859756097561,
            0.26391006097560976
          ],
          "glossinessFactor": 0.9529344512195121,
          "specularFactor": [
            0.8553734756097561,
            0.8553734756097561,
            0.8553734756097561
          ]
        }
      },
      "name": "Material_Glass"
    }
  ],
  "meshes": [
    {
      "name": "Object_0",
      "primitives": [
        {
          "attributes": {
            "NORMAL": 1,
            "POSITION": 0,
            "TEXCOORD_0": 2
          },
          "indices": 3,
          "material": 0,
          "mode": 4
        }
      ]
    }
  ],
  "nodes": [
    {
      "children": [
        1
      ],
      "matrix": [
        1.0,
        0.0,
        0.0,
        0.0,
        0.0,
        2.220446049250313e-16,
        -1.0,
        0.0,
        0.0,
        1.0,
        2.220446049250313e-16,
        0.0,
        0.0,
        0.0,
        0.0,
        1.0
      ],
      "name": "Sketchfab_model"
    },
    {
      "children": [
        2
      ],
      "name": "root"
    },
    {
      "children": [
        3
      ],
      "matrix": [
        1.0,
        0.0,
        0.0,
        0.0,
        0.0,
        2.220446049250313e-16,
        1.0,
        0.0,
        0.0,
        -1.0,
        2.220446049250313e-16,
        0.0,
        0.0,
        0.0,
        0.0,
        1.0
      ],
      "name": "GLTF_SceneRootNode"
    },
    {
      "children": [
        4
      ],
      "name": "Bowl_01_0"
    },
    {
      "mesh": 0,
      "name": "Object_4"
    }
  ],
  "scene": 0,
  "scenes": [
    {
      "name": "Sketchfab_Scene",
      "nodes": [
        0
      ]
    }
  ]
}
