{
  "accessors": [
    {
      "bufferView": 2,
      "componentType": 5126,
      "count": 10700,
      "max": [
        1.0327000617980957,
        1.9452171325683594,
        1.1218013763427734
      ],
      "min": [
        -1.2108074426651,
        0.001615310669876635,
        -1.9849684238433838
      ],
      "type": "VEC3"
    },
    {
      "bufferView": 2,
      "byteOffset": 128400,
      "componentType": 5126,
      "count": 10700,
      "max": [
        0.9999938011169434,
        1.0,
        0.9998146295547485
      ],
      "min": [
        -0.9999719858169556,
        -1.0,
        -0.9995238780975342
      ],
      "type": "VEC3"
    },
    {
      "bufferView": 1,
      "componentType": 5126,
      "count": 10700,
      "max": [
        0.0,
        0.0
      ],
      "min": [
        0.0,
        0.0
      ],
      "type": "VEC2"
    },
    {
      "bufferView": 0,
      "componentType": 5125,
      "count": 64200,
      "type": "SCALAR"
    }
  ],
  "asset": {
    "extras": {
      "author": "Everton Bohnenberger (https://sketchfab.com/BOHNEN)",
      "license": "CC-BY-4.0 (http://creativecommons.org/licenses/by/4.0/)",
      "source": "https://sketchfab.com/3d-models/cup-ee786bc8e2e744b7ab6ba56114780e8b",
      "title": "Cup"
    },
    "generator": "Sketchfab-12.66.0",
    "version": "2.0"
  },
  "bufferViews": [
    {
      "buffer": 0,
      "byteLength": 256800,
      "name": "floatBufferViews",
      "target": 34963
    },
    {
      "buffer": 0,
      "byteLength": 85600,
      "byteOffset": 256800,
      "byteStride": 8,
      "name": "floatBufferViews",
      "target": 34962
    },
    {
      "buffer": 0,
      "byteLength": 256800,
      "byteOffset": 342400,
      "byteStride": 12,
      "name": "floatBufferViews",
      "target": 34962
    }
  ],
  "buffers": [
    {
      "byteLength": 599200,
      "uri": "scene.bin"
    }
  ],
  "extensionsUsed": [
    "KHR_materials_clearcoat"
  ],
  "images": [
    {
      "uri": "textures/CupaMaterial_baseColor.png"
    }
  ],
  "materials": [
    {
      "doubleSided": true,
      "extensions": {
        "KHR_materials_clearcoat": {
          "clearcoatFactor": 0.4865530303030303,
          "clearcoatRoughnessFactor": 0.05625
        }
      },
      "name": "CupaMaterial",
      "pbrMetallicRoughness": {
        "baseColorTexture": {
          "index": 0
        },
        "metallicFactor": 0.15928030303030302,
        "roughnessFactor": 0.5653409090909091
      }
    }
  ],
  "meshes": [
    {
      "name": "Object_0",
      "primitives": [
        {
          "attributes": {
            "NORMAL": 1,
            "POSITION": 0,
            "TEXCOORD_0": 2
          },
          "indices": 3,
          "material": 0,
          "mode": 4
        }
      ]
    }
  ],
  "nodes": [
    {
      "children": [
        1
      ],
      "matrix": [
        2.220446049250313e-16,
        -2.220446049250313e-16,
        1.0,
        0.0,
        1.0,
        4.930380657631324e-32,
        -2.220446049250313e-16,
        0.0,
        0.0,
        1.0,
        2.220446049250313e-16,
        0.0,
        -0.520637571811676,
        1.870791510368228e-16,
        -0.3425295948982239,
        1.0
      ],
      "name": "Sketchfab_model"
    },
    {
      "children": [
        2
      ],
      "name": "root"
    },
    {
      "children": [
        3
      ],
      "matrix": [
        1.0,
        0.0,
        0.0,
        0.0,
        0.0,
        2.220446049250313e-16,
        1.0,
        0.0,
        0.0,
        -1.0,
        2.220446049250313e-16,
        0.0,
        0.0,
        0.0,
        0.0,
        1.0
      ],
      "name": "GLTF_SceneRootNode"
    },
    {
      "children": [
        4
      ],
      "name": "Cup_0"
    },
    {
      "mesh": 0,
      "name": "Object_4"
    }
  ],
  "samplers": [
    {
      "magFilter": 9729,
      "minFilter": 9987,
      "wrapS": 10497,
      "wrapT": 10497
    }
  ],
  "scene": 0,
  "scenes": [
    {
      "name": "Sketchfab_Scene",
      "nodes": [
        0
      ]
    }
  ],
  "textures": [
    {
      "sampler": 0,
      "source": 0
    }
  ]
}
