{
  "accessors": [
    {
      "bufferView": 2,
      "componentType": 5126,
      "count": 226,
      "max": [
        45.433013916015625,
        30.433012008666992,
        34.495689392089844
      ],
      "min": [
        -45.433013916015625,
        -5.7220458984375e-06,
        -37.57050704956055
      ],
      "type": "VEC3"
    },
    {
      "bufferView": 2,
      "byteOffset": 2712,
      "componentType": 5126,
      "count": 226,
      "max": [
        1.0,
        1.0,
        1.0
      ],
      "min": [
        -1.0,
        -1.0,
        -1.0
      ],
      "type": "VEC3"
    },
    {
      "bufferView": 3,
      "componentType": 5126,
      "count": 226,
      "max": [
        1.0,
        0.8660262823104858,
        1.0,
        1.0
      ],
      "min": [
        -1.0,
        -0.8660275936126709,
        -1.0,
        1.0
      ],
      "type": "VEC4"
    },
    {
      "bufferView": 1,
      "componentType": 5126,
      "count": 226,
      "max": [
        0.9951171875,
        0.9537414908409119
      ],
      "min": [
        0.0048828125,
        0.0048828125
      ],
      "type": "VEC2"
    },
    {
      "bufferView": 0,
      "componentType": 5125,
      "count": 384,
      "type": "SCALAR"
    }
  ],
  "asset": {
    "extras": {
      "author": "Erdogan Taskurt (https://sketchfab.com/erdogantaskurt)",
      "license": "CC-BY-4.0 (http://creativecommons.org/licenses/by/4.0/)",
      "source": "https://sketchfab.com/3d-models/3d-cardboard-lowpoly-adeda38f455d4f80bdaf7eafb9840c99",
      "title": "3D Cardboard (Lowpoly)"
    },
    "generator": "Sketchfab-15.27.0",
    "version": "2.0"
  },
  "bufferViews": [
    {
      "buffer": 0,
      "byteLength": 1536,
      "name": "floatBufferViews",
      "target": 34963
    },
    {
      "buffer": 0,
      "byteLength": 1808,
      "byteOffset": 1536,
      "byteStride": 8,
      "name": "floatBufferViews",
      "target": 34962
    },
    {
      "buffer": 0,
      "byteLength": 5424,
      "byteOffset": 3344,
      "byteStride": 12,
      "name": "floatBufferViews",
      "target": 34962
    },
    {
      "buffer": 0,
      "byteLength": 3616,
      "byteOffset": 8768,
      "byteStride": 16,
      "name": "floatBufferViews",
      "target": 34962
    }
  ],
  "buffers": [
    {
      "byteLength": 12384,
      "uri": "scene.bin"
    }
  ],
  "images": [
    {
      "uri": "textures/Cardbox_MAT_baseColor.png"
    },
    {
      "uri": "textures/Cardbox_MAT_metallicRoughness.png"
    },
    {
      "uri": "textures/Cardbox_MAT_normal.png"
    }
  ],
  "materials": [
    {
      "doubleSided": true,
      "name": "Cardbox_MAT",
      "normalTexture": {
        "index": 2
      },
      "occlusionTexture": {
        "index": 1
      },
      "pbrMetallicRoughness": {
        "baseColorTexture": {
          "index": 0
        },
        "metallicRoughnessTexture": {
          "index": 1
        }
      }
    }
  ],
  "meshes": [
    {
      "name": "Cardbox_Cardbox_MAT_0",
      "primitives": [
        {
          "attributes": {
            "NORMAL": 1,
            "POSITION": 0,
            "TANGENT": 2,
            "TEXCOORD_0": 3
          },
          "indices": 4,
          "material": 0,
          "mode": 4
        }
      ]
    }
  ],
  "nodes": [
    {
      "children": [
        1
      ],
      "matrix": [
        0.7359626293182373,
        0.0,
        0.0,
        0.0,
        0.0,
        1.6341653126655527e-16,
        -0.7359626293182373,
        0.0,
        0.0,
        0.7359626293182373,
        1.6341653126655527e-16,
        0.0,
        0.0,
        0.0,
        0.0,
        1.0
      ],
      "name": "Sketchfab_model"
    },
    {
      "children": [
        2
      ],
      "matrix": [
        0.009999999776482582,
        0.0,
        0.0,
        0.0,
        0.0,
        0.0,
        0.009999999776482582,
        0.0,
        0.0,
        -0.009999999776482582,
        0.0,
        0.0,
        0.0,
        0.0,
        0.0,
        1.0
      ],
      "name": "71d0a83305144b8cab97790c83e7ee9e.fbx"
    },
    {
      "children": [
        3
      ],
      "name": "RootNode"
    },
    {
      "children": [
        4
      ],
      "name": "Cardbox"
    },
    {
      "mesh": 0,
      "name": "Cardbox_Cardbox_MAT_0"
    }
  ],
  "samplers": [
    {
      "magFilter": 9729,
      "minFilter": 9987,
      "wrapS": 10497,
      "wrapT": 10497
    }
  ],
  "scene": 0,
  "scenes": [
    {
      "name": "Sketchfab_Scene",
      "nodes": [
        0
      ]
    }
  ],
  "textures": [
    {
      "sampler": 0,
      "source": 0
    },
    {
      "sampler": 0,
      "source": 1
    },
    {
      "sampler": 0,
      "source": 2
    }
  ]
}
