{
  "accessors": [
    {
      "bufferView": 2,
      "componentType": 5126,
      "count": 968,
      "max": [
        38.98509979248047,
        -8.109399795532227,
        42.51380157470703
      ],
      "min": [
        -38.98509979248047,
        -10.426300048828125,
        -0.2045000046491623
      ],
      "type": "VEC3"
    },
    {
      "bufferView": 2,
      "byteOffset": 11616,
      "componentType": 5126,
      "count": 968,
      "max": [
        0.9999102354049683,
        1.0,
        1.0
      ],
      "min": [
        -0.9999102354049683,
        -1.0,
        -1.0
      ],
      "type": "VEC3"
    },
    {
      "bufferView": 3,
      "componentType": 5126,
      "count": 968,
      "max": [
        0.9426685571670532,
        1.0,
        1.0,
        1.0
      ],
      "min": [
        -0.9428703188896179,
        -1.0,
        -1.0,
        1.0
      ],
      "type": "VEC4"
    },
    {
      "bufferView": 1,
      "componentType": 5126,
      "count": 968,
      "max": [
        0.6414662003517151,
        0.998046875
      ],
      "min": [
        0.001953125,
        0.001953125
      ],
      "type": "VEC2"
    },
    {
      "bufferView": 0,
      "componentType": 5125,
      "count": 3384,
      "type": "SCALAR"
    }
  ],
  "asset": {
    "extras": {
      "author": "tedpermana (https://sketchfab.com/tedpermana)",
      "license": "CC-BY-4.0 (http://creativecommons.org/licenses/by/4.0/)",
      "source": "https://sketchfab.com/3d-models/wood-clothes-hanger-3b5ada364d634aa18007f9c8d8dc79ce",
      "title": "Wood Clothes Hanger"
    },
    "generator": "Sketchfab-12.66.0",
    "version": "2.0"
  },
  "bufferViews": [
    {
      "buffer": 0,
      "byteLength": 13536,
      "name": "floatBufferViews",
      "target": 34963
    },
    {
      "buffer": 0,
      "byteLength": 7744,
      "byteOffset": 13536,
      "byteStride": 8,
      "name": "floatBufferViews",
      "target": 34962
    },
    {
      "buffer": 0,
      "byteLength": 23232,
      "byteOffset": 21280,
      "byteStride": 12,
      "name": "floatBufferViews",
      "target": 34962
    },
    {
      "buffer": 0,
      "byteLength": 15488,
      "byteOffset": 44512,
      "byteStride": 16,
      "name": "floatBufferViews",
      "target": 34962
    }
  ],
  "buffers": [
    {
      "byteLength": 60000,
      "uri": "scene.bin"
    }
  ],
  "images": [
    {
      "uri": "textures/wire_228153184_baseColor.png"
    },
    {
      "uri": "textures/wire_228153184_metallicRoughness.png"
    },
    {
      "uri": "textures/wire_228153184_normal.png"
    }
  ],
  "materials": [
    {
      "doubleSided": true,
      "name": "wire_228153184",
      "normalTexture": {
        "index": 2,
        "scale": 0.6036471918720245
      },
      "occlusionTexture": {
        "index": 1
      },
      "pbrMetallicRoughness": {
        "baseColorTexture": {
          "index": 0
        },
        "metallicRoughnessTexture": {
          "index": 1
        }
      }
    }
  ],
  "meshes": [
    {
      "name": "Object_0",
      "primitives": [
        {
          "attributes": {
            "NORMAL": 1,
            "POSITION": 0,
            "TANGENT": 2,
            "TEXCOORD_0": 3
          },
          "indices": 4,
          "material": 0,
          "mode": 4
        }
      ]
    }
  ],
  "nodes": [
    {
      "children": [
        1
      ],
      "matrix": [
        1.0,
        0.0,
        0.0,
        0.0,
        0.0,
        2.220446049250313e-16,
        -1.0,
        0.0,
        0.0,
        1.0,
        2.220446049250313e-16,
        0.0,
        0.0,
        0.0,
        0.0,
        1.0
      ],
      "name": "Sketchfab_model"
    },
    {
      "children": [
        2
      ],
      "name": "57b33e6642884e8eb562b418cad675b5.obj.cleaner.materialmerger.gles"
    },
    {
      "mesh": 0,
      "name": "Object_2"
    }
  ],
  "samplers": [
    {
      "magFilter": 9729,
      "minFilter": 9987,
      "wrapS": 10497,
      "wrapT": 10497
    }
  ],
  "scene": 0,
  "scenes": [
    {
      "name": "Sketchfab_Scene",
      "nodes": [
        0
      ]
    }
  ],
  "textures": [
    {
      "sampler": 0,
      "source": 0
    },
    {
      "sampler": 0,
      "source": 1
    },
    {
      "sampler": 0,
      "source": 2
    }
  ]
}
