{
  "accessors": [
    {
      "bufferView": 2,
      "componentType": 5126,
      "count": 9782,
      "max": [
        1.5658795833587646,
        1.5658793449401855,
        0.2745794951915741
      ],
      "min": [
        -1.5658793449401855,
        -1.5658795833587646,
        0.0
      ],
      "type": "VEC3"
    },
    {
      "bufferView": 2,
      "byteOffset": 117384,
      "componentType": 5126,
      "count": 9782,
      "max": [
        0.9852766990661621,
        0.9852766990661621,
        1.0
      ],
      "min": [
        -0.9852766990661621,
        -0.9852766990661621,
        -1.0
      ],
      "type": "VEC3"
    },
    {
      "bufferView": 1,
      "componentType": 5126,
      "count": 9782,
      "max": [
        0.9967977404594421,
        1.0
      ],
      "min": [
        0.0,
        0.0
      ],
      "type": "VEC2"
    },
    {
      "bufferView": 0,
      "componentType": 5125,
      "count": 47616,
      "type": "SCALAR"
    },
    {
      "bufferView": 2,
      "byteOffset": 234768,
      "componentType": 5126,
      "count": 58692,
      "max": [
        1.5658795833587646,
        1.5658793449401855,
        0.7550935745239258
      ],
      "min": [
        -1.5658793449401855,
        -1.5658795833587646,
        0.0
      ],
      "type": "VEC3"
    },
    {
      "bufferView": 2,
      "byteOffset": 939072,
      "componentType": 5126,
      "count": 58692,
      "max": [
        0.9852766990661621,
        0.9852766990661621,
        1.0
      ],
      "min": [
        -0.9852766990661621,
        -0.9852766990661621,
        -1.0
      ],
      "type": "VEC3"
    },
    {
      "bufferView": 1,
      "byteOffset": 78256,
      "componentType": 5126,
      "count": 58692,
      "max": [
        0.9967977404594421,
        1.0
      ],
      "min": [
        0.0,
        0.0
      ],
      "type": "VEC2"
    },
    {
      "bufferView": 0,
      "byteOffset": 190464,
      "componentType": 5125,
      "count": 285696,
      "type": "SCALAR"
    }
  ],
  "asset": {
    "extras": {
      "author": "Niraj (https://sketchfab.com/niraj.upadhyay)",
      "license": "CC-BY-4.0 (http://creativecommons.org/licenses/by/4.0/)",
      "source": "https://sketchfab.com/3d-models/plates-4bc67f865df64d52bdb640a887dc18ae",
      "title": "Plates"
    },
    "generator": "Sketchfab-12.65.0",
    "version": "2.0"
  },
  "bufferViews": [
    {
      "buffer": 0,
      "byteLength": 1333248,
      "name": "floatBufferViews",
      "target": 34963
    },
    {
      "buffer": 0,
      "byteLength": 547792,
      "byteOffset": 1333248,
      "byteStride": 8,
      "name": "floatBufferViews",
      "target": 34962
    },
    {
      "buffer": 0,
      "byteLength": 1643376,
      "byteOffset": 1881040,
      "byteStride": 12,
      "name": "floatBufferViews",
      "target": 34962
    }
  ],
  "buffers": [
    {
      "byteLength": 3524416,
      "uri": "scene.bin"
    }
  ],
  "materials": [
    {
      "name": "Plates.001",
      "pbrMetallicRoughness": {
        "baseColorFactor": [
          0.888102,
          0.882591,
          0.911398,
          1.0
        ],
        "metallicFactor": 0.0,
        "roughnessFactor": 0.766135923
      }
    }
  ],
  "meshes": [
    {
      "name": "Circle_Plates.001_0",
      "primitives": [
        {
          "attributes": {
            "NORMAL": 1,
            "POSITION": 0,
            "TEXCOORD_0": 2
          },
          "indices": 3,
          "material": 0,
          "mode": 4
        }
      ]
    },
    {
      "name": "Circle.001_Plates.001_0",
      "primitives": [
        {
          "attributes": {
            "NORMAL": 5,
            "POSITION": 4,
            "TEXCOORD_0": 6
          },
          "indices": 7,
          "material": 0,
          "mode": 4
        }
      ]
    }
  ],
  "nodes": [
    {
      "children": [
        1
      ],
      "matrix": [
        0.5212574601173401,
        8.382459140001806e-17,
        8.382459140001811e-17,
        0.0,
        8.382459140001808e-17,
        3.191781539596196e-17,
        -0.5212574601173401,
        0.0,
        -8.382459140001808e-17,
        0.5212574601173401,
        3.191781539596196e-17,
        0.0,
        -2.1316282072803006e-14,
        6.0818892961833635e-06,
        -2.117642452503786e-06,
        1.0
      ],
      "name": "Sketchfab_model"
    },
    {
      "children": [
        2
      ],
      "matrix": [
        1.0,
        0.0,
        0.0,
        0.0,
        0.0,
        0.0,
        1.0,
        0.0,
        0.0,
        -1.0,
        0.0,
        0.0,
        0.0,
        0.0,
        0.0,
        1.0
      ],
      "name": "47d7b4f1ed1d4381a089b2a1ad349b15.fbx"
    },
    {
      "children": [
        3,
        6,
        8,
        10
      ],
      "name": "RootNode"
    },
    {
      "children": [
        4
      ],
      "matrix": [
        -29.08647719990347,
        -5.518906457566863,
        -95.51711910171437,
        0.0,
        56.63930913109449,
        79.46723428563203,
        -21.83912397841966,
        0.0,
        77.11008775993375,
        -60.45246356562044,
        -19.98834696773717,
        0.0,
        -306.5586242675781,
        447.2693786621094,
        86.42231750488281,
        1.0
      ],
      "name": "Light"
    },
    {
      "children": [
        5
      ],
      "matrix": [
        1.0,
        0.0,
        0.0,
        0.0,
        0.0,
        2.220446049250313e-16,
        1.0,
        0.0,
        0.0,
        -1.0,
        2.220446049250313e-16,
        0.0,
        0.0,
        0.0,
        0.0,
        1.0
      ],
      "name": "Object_4"
    },
    {
      "name": "Object_5"
    },
    {
      "children": [
        7
      ],
      "matrix": [
        -65.15583280329096,
        -44.52713576570858,
        -61.41703047373549,
        0.0,
        -32.40134137821245,
        89.53957451233616,
        -30.542088974418615,
        0.0,
        68.59205472129975,
        -1.0718647115348782e-05,
        -72.7676336239627,
        0.0,
        735.88916015625,
        495.8309326171875,
        692.5791015625,
        1.0
      ],
      "name": "Camera"
    },
    {
      "name": "Object_7"
    },
    {
      "children": [
        9
      ],
      "matrix": [
        100.0,
        0.0,
        0.0,
        0.0,
        0.0,
        -1.629206793918314e-05,
        -99.99999999999868,
        0.0,
        0.0,
        99.99999999999868,
        -1.629206793918314e-05,
        0.0,
        0.0,
        0.0,
        0.0,
        1.0
      ],
      "name": "Circle"
    },
    {
      "mesh": 0,
      "name": "Circle_Plates.001_0"
    },
    {
      "children": [
        11
      ],
      "matrix": [
        100.0,
        0.0,
        0.0,
        0.0,
        -0.0,
        -1.629206793918314e-05,
        -99.99999999999868,
        0.0,
        0.0,
        99.99999999999868,
        -1.629206793918314e-05,
        0.0,
        -113.91220092773438,
        -1.191738247871399,
        -315.59539794921875,
        1.0
      ],
      "name": "Circle.001"
    },
    {
      "mesh": 1,
      "name": "Circle.001_Plates.001_0"
    }
  ],
  "scene": 0,
  "scenes": [
    {
      "name": "Sketchfab_Scene",
      "nodes": [
        0
      ]
    }
  ]
}
